<svg id="Layer_1" preserveAspectRatio="none" data-name="Layer 1" xmlns="http://www.w3.org/2000/svg" viewBox="0 0 968.91 111.22"><defs><style>.cls-1{fill:#f58220;fill-rule:evenodd;}</style></defs><path class="cls-1" d="M586.3,130.13c-98.16,0-175.55-21.73-243.84-40.9C285,73.09,230.68,57.85,172.85,57.85c-1.59,0-3.18,0-4.78,0C72.47,59.26,18.5,73.61,18,73.76l-.63.17v-54l967.9,3.26-.49,44.69-.34.11c-.47.15-47.08,15.33-118.5,30.49-65.92,14-167.07,30.86-274.57,31.65C589.64,130.13,588,130.13,586.3,130.13Z" transform="translate(-16.83 -19.41)"/><path d="M17.84,20.41l966.89,3.26-.49,43.83s-184.89,60.57-392.92,62.11c-1.69,0-3.35,0-5,0-180.37,0-286.54-72.28-413.45-72.28-1.59,0-3.19,0-4.78,0C71.28,58.78,17.83,73.28,17.83,73.28V20.41m-1-1V74.58l1.26-.34c.54-.14,54.47-14.48,150-15.85,1.58,0,3.19,0,4.77,0,57.76,0,112,15.24,169.48,31.36,68.31,19.18,145.74,40.92,244,40.92,1.68,0,3.34,0,5,0C698.87,129.81,800.06,113,866,99c71.45-15.17,118.09-30.35,118.55-30.5l.68-.23v-.71l.49-43.83v-1h-1L17.84,19.41Z" transform="translate(-16.83 -19.41)"/></svg>